<svg width="50" height="52" viewBox="0 0 50 52" fill="none" xmlns="http://www.w3.org/2000/svg">
<path d="M33.3333 44.775V40.5656C33.3333 38.3328 32.4554 36.1915 30.8926 34.6127C29.3297 33.0338 27.2101 32.1469 25 32.1469H10.4167C8.20652 32.1469 6.08691 33.0338 4.52411 34.6127C2.9613 36.1915 2.08333 38.3328 2.08333 40.5656V44.775" stroke="#F52495" stroke-width="2" stroke-linecap="round" stroke-linejoin="round"/>
<path d="M17.7083 23.7281C22.3107 23.7281 26.0417 19.9589 26.0417 15.3093C26.0417 10.6597 22.3107 6.8905 17.7083 6.8905C13.106 6.8905 9.375 10.6597 9.375 15.3093C9.375 19.9589 13.106 23.7281 17.7083 23.7281Z" stroke="#F52495" stroke-width="2" stroke-linecap="round" stroke-linejoin="round"/>
<path d="M35.4167 23.7281L39.5833 27.9375L47.9167 19.5187" stroke="#F52495" stroke-width="2" stroke-linecap="round" stroke-linejoin="round"/>
</svg>
