<svg width="50" height="51" viewBox="0 0 50 51" fill="none" xmlns="http://www.w3.org/2000/svg">
<path d="M12.5 4.25L6.25 12.75V42.5C6.25 43.6272 6.68899 44.7082 7.47039 45.5052C8.25179 46.3022 9.3116 46.75 10.4167 46.75H39.5833C40.6884 46.75 41.7482 46.3022 42.5296 45.5052C43.311 44.7082 43.75 43.6272 43.75 42.5V12.75L37.5 4.25H12.5Z" stroke="#F52495" stroke-width="2" stroke-linecap="round" stroke-linejoin="round"/>
<path d="M6.25 12.75H43.75" stroke="#F52495" stroke-width="2" stroke-linecap="round" stroke-linejoin="round"/>
<path d="M33.3333 21.25C33.3333 23.5043 32.4553 25.6663 30.8925 27.2604C29.3297 28.8545 27.2101 29.75 25 29.75C22.7899 29.75 20.6702 28.8545 19.1074 27.2604C17.5446 25.6663 16.6667 23.5043 16.6667 21.25" stroke="#F52495" stroke-width="2" stroke-linecap="round" stroke-linejoin="round"/>
</svg>
